<svg xmlns="http://www.w3.org/2000/svg" width="85" height="13" viewBox="0 0 85 13"><path fill="#eec400" d="M81.963 12.74l-4.13-3.09-4.205 2.99 1.663-4.885-4.143-3.074 5.159.073 1.644-4.89 1.525 4.928 5.158.053-4.215 2.973zm-18 0l-4.13-3.09-4.205 2.99 1.663-4.885-4.143-3.074 5.158.073 1.645-4.89 1.525 4.928 5.158.053-4.215 2.973zm-18 0l-4.131-3.09-4.204 2.99 1.663-4.885-4.143-3.074 5.159.073 1.644-4.89 1.525 4.928 5.158.053-4.215 2.973zm-18 0l-4.13-3.09-4.205 2.99 1.663-4.885-4.143-3.074 5.159.073 1.644-4.89 1.525 4.928 5.158.053-4.215 2.973zm-17 0l-4.13-3.09-4.205 2.99L4.29 7.754.148 4.681l5.159.073L6.95-.136l1.525 4.928 5.158.053L9.42 7.818z"/></svg>