<svg xmlns="http://www.w3.org/2000/svg" width="85" height="85" viewBox="0 0 85 85"><g><g><path fill="#ff9d46" d="M42.5 0C65.972 0 85 19.027 85 42.5 85 65.972 65.972 85 42.5 85S0 65.972 0 42.5C0 19.027 19.028 0 42.5 0z"/></g><g><path fill="#fff" d="M65.467 44.008l-3.723 1.882 3.723 1.883A2.793 2.793 0 0 1 67 50.28c0 1.07-.587 2.03-1.533 2.51L44.45 63.418a5.434 5.434 0 0 1-2.45.581 5.431 5.431 0 0 1-2.45-.581L18.533 52.79A2.794 2.794 0 0 1 17 50.28c0-1.069.588-2.03 1.533-2.507l3.723-1.883-3.723-1.882A2.793 2.793 0 0 1 17 41.5c0-1.07.587-2.03 1.532-2.509l3.724-1.883-3.723-1.883A2.793 2.793 0 0 1 17 32.717c0-1.069.587-2.03 1.533-2.508l21.016-10.628a5.451 5.451 0 0 1 4.901 0l21.017 10.627A2.795 2.795 0 0 1 67 32.717c0 1.069-.587 2.03-1.533 2.508l-3.723 1.883 3.723 1.883A2.792 2.792 0 0 1 67 41.5c0 1.068-.588 2.03-1.533 2.508zm-24.89-.234c.891.45 1.955.45 2.846 0l21.016-10.628a.461.461 0 0 0 .262-.43.462.462 0 0 0-.262-.428L43.423 21.66a3.162 3.162 0 0 0-2.846 0L19.56 32.288a.463.463 0 0 0-.262.429c0 .111.034.314.262.43zm18.597 3.416L44.45 54.635a5.434 5.434 0 0 1-2.45.582 5.43 5.43 0 0 1-2.45-.581L24.826 47.19l-5.265 2.662a.461.461 0 0 0-.262.429c0 .11.034.314.262.43l21.016 10.627c.89.45 1.955.45 2.846 0L64.439 50.71a.462.462 0 0 0 .262-.43.46.46 0 0 0-.262-.427zM64.7 41.5a.462.462 0 0 0-.263-.43l-5.264-2.662-14.724 7.446a5.433 5.433 0 0 1-2.45.581 5.438 5.438 0 0 1-2.45-.581l-14.724-7.446-5.265 2.662a.462.462 0 0 0-.262.43c0 .11.034.313.262.428l21.016 10.628c.89.45 1.955.45 2.846 0l21.016-10.628a.46.46 0 0 0 .262-.428z"/></g></g></svg>