<svg xmlns="http://www.w3.org/2000/svg" width="270" height="286" viewBox="0 0 270 286"><defs><clipPath id="zg2xa"><path fill="#fff" d="M167.798 8.689l99.88 173.053c4.796 8.31 1.95 18.938-6.359 23.736l-135.388 78.193c-8.308 4.798-18.932 1.95-23.729-6.36L2.322 104.257C-2.473 95.946.373 85.319 8.682 80.52L144.069 2.328c8.308-4.798 18.932-1.95 23.729 6.36z"/></clipPath></defs><g><g><path fill="none" stroke="#fff" stroke-dasharray="8 4" stroke-miterlimit="50" stroke-width="4" d="M167.798 8.689l99.88 173.053c4.796 8.31 1.95 18.938-6.359 23.736l-135.388 78.193c-8.308 4.798-18.932 1.95-23.729-6.36L2.322 104.257C-2.473 95.946.373 85.319 8.682 80.52L144.069 2.328c8.308-4.798 18.932-1.95 23.729 6.36z" clip-path="url(&quot;#zg2xa&quot;)"/></g></g></svg>