<svg xmlns="http://www.w3.org/2000/svg" width="164" height="164" viewBox="0 0 164 164"><defs><mask id="qsh8b" width="2" height="2" x="-1" y="-1"><path fill="#fff" d="M24 24h116v116H24z"/><path d="M82 24c32.032 0 58 25.967 58 58 0 32.032-25.968 58-58 58-32.033 0-58-25.968-58-58 0-32.033 25.967-58 58-58z"/></mask><filter id="qsh8a" width="196" height="196" x="-16" y="-16" filterUnits="userSpaceOnUse"><feOffset in="SourceGraphic" result="FeOffset1025Out"/><feGaussianBlur in="FeOffset1025Out" result="FeGaussianBlur1026Out" stdDeviation="12 12"/></filter><filter id="qsh8c" width="200%" height="200%" x="-50%" y="-50%"><feGaussianBlur in="SourceGraphic" result="FeGaussianBlur1031Out" stdDeviation="2.5 2.5"/></filter><mask id="qsh8d"><path fill="#fff" d="M82 24c32.032 0 58 25.967 58 58 0 32.032-25.968 58-58 58-32.033 0-58-25.968-58-58 0-32.033 25.967-58 58-58z"/></mask><clipPath id="qsh8e"><path fill="#fff" d="M9 155V9h146v146zm15-73c0 32.032 25.967 58 58 58 32.032 0 58-25.968 58-58 0-32.033-25.968-58-58-58-32.033 0-58 25.967-58 58z"/></clipPath></defs><g><g><g><g filter="url(#qsh8a)"><path fill="none" d="M82 24c32.032 0 58 25.967 58 58 0 32.032-25.968 58-58 58-32.033 0-58-25.968-58-58 0-32.033 25.967-58 58-58z" mask="url(&quot;#qsh8b&quot;)"/><path fill-opacity=".25" d="M82 24c32.032 0 58 25.967 58 58 0 32.032-25.968 58-58 58-32.033 0-58-25.968-58-58 0-32.033 25.967-58 58-58z"/></g><path fill="#fff" d="M82 24c32.032 0 58 25.967 58 58 0 32.032-25.968 58-58 58-32.033 0-58-25.968-58-58 0-32.033 25.967-58 58-58z"/><path fill="#010202" fill-opacity=".15" d="M19 145V19h126v126zm5-63c0 32.032 25.967 58 58 58 32.032 0 58-25.968 58-58 0-32.033-25.968-58-58-58-32.033 0-58 25.967-58 58z" filter="url(#qsh8c)" mask="url(&quot;#qsh8d&quot;)"/><path fill="none" stroke="#fff" stroke-linecap="round" stroke-linejoin="round" stroke-miterlimit="50" stroke-width="30" d="M82 24c32.032 0 58 25.967 58 58 0 32.032-25.968 58-58 58-32.033 0-58-25.968-58-58 0-32.033 25.967-58 58-58z" clip-path="url(&quot;#qsh8e&quot;)"/></g><g><path fill="#24c657" d="M82.5 40c23.472 0 42.5 19.027 42.5 42.5 0 23.472-19.028 42.5-42.5 42.5S40 105.972 40 82.5C40 59.027 59.028 40 82.5 40z"/></g><g><path fill="#fff" d="M77.092 78.772L82.44 67.81a.625.625 0 0 1 .56-.356c.238 0 .455.137.561.356l5.347 10.963c.059.12.08.254.06.386l-1.672 10.964a.653.653 0 0 1-.054.178l.873 12.009a.65.65 0 0 1-.165.485.62.62 0 0 1-.46.205h-9.22a.621.621 0 0 1-.463-.208.652.652 0 0 1-.162-.49l1.049-12.257-1.66-10.886a.655.655 0 0 1 .06-.386zm9.722 22.943l-.803-11.05h-6.113l-.946 11.05zm-5.527-19.572c0 .968.768 1.756 1.713 1.756.944 0 1.713-.788 1.713-1.756s-.769-1.756-1.713-1.756c-.945 0-1.713.788-1.713 1.756zm-2.984-2.98L79.86 89.38h6.28l1.557-10.218-4.07-8.346v8.354c1.335.295 2.339 1.516 2.339 2.972 0 1.676-1.33 3.04-2.966 3.04-1.636 0-2.966-1.364-2.966-3.04 0-1.456 1.004-2.676 2.34-2.971v-8.355zm-8.295-12.095v-3.426c0-.355.28-.643.626-.643h3.342c.347 0 .627.288.627.643v1.07h16.794v-1.07c0-.355.28-.643.626-.643h3.342c.346 0 .627.288.627.643v3.426c0 .354-.28.643-.627.643h-3.342a.635.635 0 0 1-.626-.643v-1.07H74.603v1.07c0 .354-.28.643-.627.643h-3.342a.635.635 0 0 1-.626-.643zm22.642-.643h2.089v-2.142H92.65zm-21.389 0h2.089v-2.142H71.26zM67 82.485c0-9.044 7.178-16.402 16-16.402s16 7.358 16 16.402c0 .356-.28.643-.627.643a.635.635 0 0 1-.627-.643c0-8.335-6.615-15.118-14.746-15.118S68.253 74.15 68.253 82.485c0 .356-.28.643-.626.643a.635.635 0 0 1-.627-.643z"/></g></g></g></svg>