<svg xmlns="http://www.w3.org/2000/svg" width="85" height="85" viewBox="0 0 85 85"><path fill="#00cff1" d="M42.5 0C65.972 0 85 19.027 85 42.5 85 65.972 65.972 85 42.5 85S0 65.972 0 42.5C0 19.027 19.028 0 42.5 0z"/><path fill="#fff" d="M67 56.333h-3.31v3.333h-3.31v3.333H25.62v-3.333h-3.31v-3.333H19V29.665h3.31v-3.332h3.31v-3.334h34.76v3.334h3.31v3.332H67zm-44.69-1.667V31.332h-1.655v23.334zm3.31 3.333v-30h-1.655v30zm33.104-33.333H27.276v36.667h31.448zm3.31 3.333H60.38v30h1.655zm3.31 3.333H63.69v23.334h1.655z"/></svg>